<mxfile host="app.diagrams.net" modified="2024-06-04T19:38:12.590Z" agent="Mozilla/5.0 (Windows NT 10.0; Win64; x64) AppleWebKit/537.36 (KHTML, like Gecko) Chrome/124.0.0.0 Safari/537.36" etag="U0rD9X3we53835TElgE2" version="24.4.13" type="device">
  <diagram name="Page-1" id="99IAS3e8_sDQEnnPDizE">
    <mxGraphModel dx="974" dy="557" grid="1" gridSize="10" guides="1" tooltips="1" connect="1" arrows="1" fold="1" page="1" pageScale="1" pageWidth="850" pageHeight="1100" math="0" shadow="0">
      <root>
        <mxCell id="0" />
        <mxCell id="1" parent="0" />
        <mxCell id="opCOW8MehpOfIy2U3bgH-25" value="" style="group" vertex="1" connectable="0" parent="1">
          <mxGeometry x="80" y="300" width="730" height="370" as="geometry" />
        </mxCell>
        <mxCell id="opCOW8MehpOfIy2U3bgH-10" value="" style="rounded=0;whiteSpace=wrap;html=1;" vertex="1" parent="opCOW8MehpOfIy2U3bgH-25">
          <mxGeometry x="200" width="530" height="370" as="geometry" />
        </mxCell>
        <mxCell id="opCOW8MehpOfIy2U3bgH-1" value="" style="sketch=0;points=[[0,0,0],[0.25,0,0],[0.5,0,0],[0.75,0,0],[1,0,0],[0,1,0],[0.25,1,0],[0.5,1,0],[0.75,1,0],[1,1,0],[0,0.25,0],[0,0.5,0],[0,0.75,0],[1,0.25,0],[1,0.5,0],[1,0.75,0]];outlineConnect=0;fontColor=#232F3E;fillColor=#7AA116;strokeColor=#ffffff;dashed=0;verticalLabelPosition=bottom;verticalAlign=top;align=center;html=1;fontSize=12;fontStyle=0;aspect=fixed;shape=mxgraph.aws4.resourceIcon;resIcon=mxgraph.aws4.s3;" vertex="1" parent="opCOW8MehpOfIy2U3bgH-25">
          <mxGeometry x="620" y="98" width="78" height="78" as="geometry" />
        </mxCell>
        <mxCell id="opCOW8MehpOfIy2U3bgH-19" value="" style="edgeStyle=orthogonalEdgeStyle;rounded=0;orthogonalLoop=1;jettySize=auto;html=1;" edge="1" parent="opCOW8MehpOfIy2U3bgH-25" source="opCOW8MehpOfIy2U3bgH-4" target="opCOW8MehpOfIy2U3bgH-2">
          <mxGeometry relative="1" as="geometry" />
        </mxCell>
        <mxCell id="opCOW8MehpOfIy2U3bgH-4" value="" style="outlineConnect=0;dashed=0;verticalLabelPosition=bottom;verticalAlign=top;align=center;html=1;shape=mxgraph.aws3.route_53;fillColor=#F58536;gradientColor=none;" vertex="1" parent="opCOW8MehpOfIy2U3bgH-25">
          <mxGeometry x="230" y="99.25" width="70.5" height="75.5" as="geometry" />
        </mxCell>
        <mxCell id="opCOW8MehpOfIy2U3bgH-2" value="" style="outlineConnect=0;dashed=0;verticalLabelPosition=bottom;verticalAlign=top;align=center;html=1;shape=mxgraph.aws3.cloudfront;fillColor=#F58536;gradientColor=none;" vertex="1" parent="opCOW8MehpOfIy2U3bgH-25">
          <mxGeometry x="410" y="93.5" width="76.5" height="86.5" as="geometry" />
        </mxCell>
        <mxCell id="opCOW8MehpOfIy2U3bgH-5" value="" style="outlineConnect=0;dashed=0;verticalLabelPosition=bottom;verticalAlign=top;align=center;html=1;shape=mxgraph.aws3.cloud_2;fillColor=#F58534;gradientColor=none;" vertex="1" parent="opCOW8MehpOfIy2U3bgH-25">
          <mxGeometry x="200" width="60" height="60" as="geometry" />
        </mxCell>
        <mxCell id="opCOW8MehpOfIy2U3bgH-18" value="" style="edgeStyle=orthogonalEdgeStyle;rounded=0;orthogonalLoop=1;jettySize=auto;html=1;" edge="1" parent="opCOW8MehpOfIy2U3bgH-25" source="opCOW8MehpOfIy2U3bgH-6" target="opCOW8MehpOfIy2U3bgH-2">
          <mxGeometry relative="1" as="geometry" />
        </mxCell>
        <mxCell id="opCOW8MehpOfIy2U3bgH-6" value="" style="sketch=0;points=[[0,0,0],[0.25,0,0],[0.5,0,0],[0.75,0,0],[1,0,0],[0,1,0],[0.25,1,0],[0.5,1,0],[0.75,1,0],[1,1,0],[0,0.25,0],[0,0.5,0],[0,0.75,0],[1,0.25,0],[1,0.5,0],[1,0.75,0]];outlineConnect=0;fontColor=#232F3E;fillColor=#DD344C;strokeColor=#ffffff;dashed=0;verticalLabelPosition=bottom;verticalAlign=top;align=center;html=1;fontSize=12;fontStyle=0;aspect=fixed;shape=mxgraph.aws4.resourceIcon;resIcon=mxgraph.aws4.certificate_manager_3;" vertex="1" parent="opCOW8MehpOfIy2U3bgH-25">
          <mxGeometry x="410" y="260" width="78" height="78" as="geometry" />
        </mxCell>
        <mxCell id="opCOW8MehpOfIy2U3bgH-7" value="" style="outlineConnect=0;dashed=0;verticalLabelPosition=bottom;verticalAlign=top;align=center;html=1;shape=mxgraph.aws3.users;fillColor=#D2D3D3;gradientColor=none;" vertex="1" parent="opCOW8MehpOfIy2U3bgH-25">
          <mxGeometry y="97" width="80" height="80" as="geometry" />
        </mxCell>
        <mxCell id="opCOW8MehpOfIy2U3bgH-11" value="&lt;h3&gt;Rout 53&lt;/h3&gt;" style="text;html=1;align=center;verticalAlign=middle;whiteSpace=wrap;rounded=0;" vertex="1" parent="opCOW8MehpOfIy2U3bgH-25">
          <mxGeometry x="230" y="63.5" width="74.75" height="30" as="geometry" />
        </mxCell>
        <mxCell id="opCOW8MehpOfIy2U3bgH-12" value="&lt;h3&gt;CloudFront&lt;/h3&gt;" style="text;html=1;align=center;verticalAlign=middle;whiteSpace=wrap;rounded=0;" vertex="1" parent="opCOW8MehpOfIy2U3bgH-25">
          <mxGeometry x="410" y="63.5" width="74.75" height="30" as="geometry" />
        </mxCell>
        <mxCell id="opCOW8MehpOfIy2U3bgH-13" value="&lt;h3&gt;S3 Bucket&lt;/h3&gt;" style="text;html=1;align=center;verticalAlign=middle;whiteSpace=wrap;rounded=0;" vertex="1" parent="opCOW8MehpOfIy2U3bgH-25">
          <mxGeometry x="620" y="60" width="74.75" height="30" as="geometry" />
        </mxCell>
        <mxCell id="opCOW8MehpOfIy2U3bgH-14" value="&lt;h3&gt;Certificate Manager&lt;/h3&gt;" style="text;html=1;align=center;verticalAlign=middle;whiteSpace=wrap;rounded=0;" vertex="1" parent="opCOW8MehpOfIy2U3bgH-25">
          <mxGeometry x="379.12" y="340" width="138.25" height="30" as="geometry" />
        </mxCell>
        <mxCell id="opCOW8MehpOfIy2U3bgH-22" value="" style="endArrow=classic;html=1;rounded=0;exitX=1;exitY=0.5;exitDx=0;exitDy=0;exitPerimeter=0;" edge="1" parent="opCOW8MehpOfIy2U3bgH-25" source="opCOW8MehpOfIy2U3bgH-7" target="opCOW8MehpOfIy2U3bgH-4">
          <mxGeometry width="50" height="50" relative="1" as="geometry">
            <mxPoint x="80" y="143.5" as="sourcePoint" />
            <mxPoint x="130" y="93.5" as="targetPoint" />
          </mxGeometry>
        </mxCell>
        <mxCell id="opCOW8MehpOfIy2U3bgH-23" style="edgeStyle=orthogonalEdgeStyle;rounded=0;orthogonalLoop=1;jettySize=auto;html=1;entryX=0;entryY=0.5;entryDx=0;entryDy=0;entryPerimeter=0;" edge="1" parent="opCOW8MehpOfIy2U3bgH-25" source="opCOW8MehpOfIy2U3bgH-2" target="opCOW8MehpOfIy2U3bgH-1">
          <mxGeometry relative="1" as="geometry" />
        </mxCell>
        <mxCell id="opCOW8MehpOfIy2U3bgH-24" value="&lt;h3&gt;Users&lt;/h3&gt;" style="text;html=1;align=center;verticalAlign=middle;whiteSpace=wrap;rounded=0;" vertex="1" parent="opCOW8MehpOfIy2U3bgH-25">
          <mxGeometry x="2.6299999999999955" y="63.5" width="74.75" height="30" as="geometry" />
        </mxCell>
      </root>
    </mxGraphModel>
  </diagram>
</mxfile>
